<?xml version="1.0" encoding="utf-8"?>
<!-- Generator: Adobe Illustrator 21.1.0, SVG Export Plug-In . SVG Version: 6.00 Build 0)  -->
<svg version="1.1" id="Layer_1" xmlns="http://www.w3.org/2000/svg" xmlns:xlink="http://www.w3.org/1999/xlink" x="0px" y="0px"
	 viewBox="0 0 960 250" style="enable-background:new 0 0 960 250;" xml:space="preserve">
<style type="text/css">
	.st0{fill:#FFFFFF;}
</style>
<g>
	<g>
		<g>
			<g>
				<path class="st0" d="M129.7,222.1h-26.5v-18.6c-11.4,13.8-26.8,20.7-46,20.7c-14.4,0-26.3-4.1-35.7-12.3
					c-9.4-8.2-14.2-19.1-14.2-32.8c0-13.7,5-23.9,15.1-30.7c10-6.8,23.6-10.2,40.8-10.2h37.7V133c0-18.5-10.2-27.7-30.7-27.7
					c-12.8,0-26.2,4.7-40,14.1l0.3-27.2c13.4-7.5,28-11.2,43.9-11.2c16.3,0,29.6,4.1,39.9,12.4c10.3,8.3,15.5,21.3,15.5,39.1V222.1z
					 M100.6,170.3v-11.8H67.8c-21,0-31.4,6.6-31.4,19.9c0,6.8,2.6,12,7.8,15.6c5.2,3.6,12.4,5.4,21.7,5.4c9.3,0,17.4-2.6,24.3-7.8
					C97.1,186.3,100.6,179.2,100.6,170.3z"/>
			</g>
		</g>
		<g>
			<g>
				<path class="st0" d="M222.9,224.2c-19.2,0-35.8-6.6-49.6-19.7c-13.9-13.2-20.8-30.4-20.8-51.6s7.2-38.6,21.7-51.9
					s32.1-20,52.9-20c20.8,0,38.4,7.2,52.7,21.7l-17.2,21.2c-12-10.5-24-15.7-36.1-15.7c-12.1,0-22.7,4.1-31.6,12.2
					c-8.9,8.1-13.4,18.6-13.4,31.4c0,12.8,4.4,23.7,13.3,32.5c8.8,8.9,19.7,13.3,32.6,13.3c12.9,0,25.1-5.9,36.5-17.8l17.1,18.8
					C264.3,215.7,244.9,224.2,222.9,224.2z"/>
			</g>
		</g>
		<g>
			<g>
				<path class="st0" d="M415.7,222.1h-26.5v-18.6c-11.4,13.8-26.8,20.7-46,20.7c-14.4,0-26.3-4.1-35.7-12.3
					c-9.4-8.2-14.2-19.1-14.2-32.8c0-13.7,5-23.9,15.1-30.7c10-6.8,23.6-10.2,40.8-10.2h37.7V133c0-18.5-10.2-27.7-30.7-27.7
					c-12.8,0-26.2,4.7-40,14.1l-13-18.3C320,87.7,339,80.9,360.3,80.9c16.3,0,29.6,4.1,39.9,12.4c10.3,8.3,15.5,21.3,15.5,39.1
					V222.1z M386.6,170.3v-11.8h-32.7c-21,0-31.4,6.6-31.4,19.9c0,6.8,2.6,12,7.8,15.6c5.2,3.6,12.4,5.4,21.7,5.4
					c9.3,0,17.4-2.6,24.3-7.8C383.1,186.3,386.6,179.2,386.6,170.3z"/>
			</g>
		</g>
		<g>
			<g>
				<path class="st0" d="M448.3,55.3c-3.6-3.7-5.5-8-5.5-13.1s1.8-9.4,5.5-13.1s8-5.5,13-5.5c5,0,9.4,1.8,13,5.5
					c3.6,3.7,5.5,8,5.5,13.1s-1.8,9.4-5.5,13.1c-3.6,3.7-8,5.5-13,5.5C456.2,60.8,451.9,59,448.3,55.3z M475.6,222.1h-29.1V93.4
					h29.1V222.1z"/>
			</g>
		</g>
		<g>
			<g>
				<path class="st0" d="M606.5,180.5c0,13.2-4.8,23.8-14.3,31.8c-9.5,7.9-21.7,11.9-36.6,11.9c-10,0-20.5-1.8-31.3-5.5
					c-8-2.7-15.3-6.2-21.9-10.5l0-31c13.5,10.6,27,20.9,54,21.6c6.6,0.2,11.8-1.5,15.6-4.6c3.8-3,5.7-6.9,5.7-11.6
					c0-7-9.2-13.2-27.5-18.8c-1.4-0.5-2.4-0.9-3.1-1c-28.8-7.8-43.1-20.9-43.1-39.2c0-12.9,5-23.2,14.9-31
					c10-7.8,22.9-11.6,38.8-11.6c11.7,0,22.9,2.5,33.7,7.6l0.6,28.2c-11.3-7.5-23.5-11.2-36.6-11.2c-6.9,0-12.6,1.3-16.9,3.8
					c-4.3,2.5-6.5,6.3-6.5,11.4c0,4.5,2.3,7.8,6.8,9.9c3.1,1.6,7.5,3,13.1,4.4c5.6,1.4,10.6,2.8,14.9,4.2c4.3,1.4,8.5,3,12.6,4.7
					s8.4,4.2,13.1,7.3C601.9,157.5,606.5,167.3,606.5,180.5z"/>
			</g>
		</g>
		<g>
			<g>
				<path class="st0" d="M745.4,203.4c-13.9,13.9-31.2,20.8-52,20.8c-20.8,0-38.1-6.9-52-20.8c-13.9-13.9-20.8-30.8-20.8-50.8
					c0-20,6.9-37,20.8-50.8c13.9-13.9,31.2-20.8,52-20.8c20.8,0,38.1,6.9,52,20.8c13.9,13.9,20.8,30.8,20.8,50.8
					C766.2,172.6,759.3,189.6,745.4,203.4z M662.2,185.4c8.2,8.5,18.7,12.7,31.3,12.7c12.6,0,23.1-4.2,31.3-12.7
					c8.2-8.5,12.3-19.4,12.3-32.8c0-13.4-4.1-24.4-12.3-32.8c-8.2-8.5-18.7-12.7-31.3-12.7c-12.7,0-23.1,4.2-31.3,12.7
					c-8.2,8.5-12.3,19.4-12.3,32.8C649.8,166,653.9,176.9,662.2,185.4z"/>
			</g>
		</g>
		<g>
			<g>
				<path class="st0" d="M822.5,71.5V83h36.4v23.5h-36.4v115.5h-29.1V106.6H776V83h17.4V72.3c0-14.6,4.4-26.3,13.1-34.9
					c8.7-8.6,19.3-12.9,31.7-12.9c1.5,0,3.1,0.1,4.6,0.2l-0.6,25.1c-6.2,0-11.1,2-14.6,5.9C824.3,59.6,822.5,64.9,822.5,71.5z"/>
			</g>
		</g>
		<g>
			<g>
				<path class="st0" d="M903.4,106.6v70.6c0,6.6,1.7,11.9,5.2,15.8c3.5,3.9,8.3,5.9,14.6,5.9c6.2,0,12.2-3,17.9-9.2l12,20.7
					c-10.2,9.2-21.5,13.9-33.9,13.9s-23-4.3-31.7-12.9c-8.7-8.6-13.1-20.3-13.1-34.9v-69.8h-17.4V83h17.4V39.4h29.1V83h36.4v23.5
					H903.4z"/>
			</g>
		</g>
	</g>
</g>
</svg>
